<svg width="22" height="24" viewBox="0 0 22 24" fill="none" xmlns="http://www.w3.org/2000/svg">
<path d="M13.2779 23.993C13.0699 23.993 12.9269 23.86 12.8519 23.6C12.6299 22.827 12.4299 22.047 12.1829 21.283C11.8879 20.279 11.3413 19.3671 10.5949 18.6338C9.84841 17.9005 8.92694 17.3701 7.91791 17.093C7.18091 16.867 6.43491 16.668 5.69391 16.456C5.58963 16.4436 5.49353 16.3934 5.4238 16.3149C5.35407 16.2364 5.31555 16.135 5.31555 16.03C5.31555 15.925 5.35407 15.8236 5.4238 15.7451C5.49353 15.6666 5.58963 15.6164 5.69391 15.604C6.57291 15.349 7.46991 15.145 8.32591 14.829C9.28358 14.4961 10.1438 13.931 10.8296 13.1843C11.5155 12.4376 12.0055 11.5325 12.2559 10.55C12.4559 9.859 12.6509 9.167 12.8489 8.476C12.8664 8.37384 12.9195 8.28117 12.9988 8.21447C13.0781 8.14778 13.1785 8.11138 13.2822 8.11174C13.3858 8.11209 13.486 8.1492 13.5648 8.21644C13.6437 8.28368 13.6962 8.37672 13.7129 8.479C13.9199 9.202 14.1129 9.928 14.3369 10.646C14.6255 11.6975 15.1869 12.6541 15.9641 13.4188C16.7414 14.1836 17.7069 14.7294 18.7629 15.001C19.4629 15.201 20.1629 15.401 20.8549 15.601C21.1179 15.677 21.2459 15.818 21.2479 16.027C21.2499 16.236 21.1199 16.383 20.8619 16.458C20.0519 16.692 19.2309 16.893 18.4339 17.163C17.4357 17.4751 16.5334 18.0364 15.8124 18.794C15.0913 19.5517 14.5753 20.4805 14.3129 21.493C14.1069 22.193 13.9129 22.901 13.7129 23.605C13.6399 23.861 13.4899 23.993 13.2819 23.992" fill="currentColor"/>
<path d="M5.31194 10.599C5.17295 10.599 5.07795 10.51 5.02795 10.337C4.87994 9.827 4.74594 9.307 4.58095 8.799C4.38465 8.12868 4.02036 7.51962 3.52263 7.02959C3.02491 6.53957 2.41024 6.18482 1.73695 5.999C1.24594 5.849 0.748945 5.716 0.253945 5.575C0.18443 5.56673 0.120359 5.53326 0.073872 5.48092C0.0273847 5.42858 0.00170898 5.361 0.00170898 5.291C0.00170898 5.22099 0.0273847 5.15342 0.073872 5.10108C0.120359 5.04874 0.18443 5.01526 0.253945 5.007C0.839945 4.837 1.43795 4.701 2.00895 4.49C2.64752 4.2679 3.22108 3.89095 3.67831 3.3929C4.13553 2.89484 4.46215 2.2912 4.62895 1.636C4.76195 1.175 4.89194 0.713998 5.02894 0.252998C5.03819 0.182766 5.07266 0.118291 5.12592 0.0715844C5.17918 0.0248783 5.24761 -0.000873566 5.31845 -0.000873566C5.38928 -0.000873566 5.45771 0.0248783 5.51097 0.0715844C5.56423 0.118291 5.5987 0.182766 5.60794 0.252998C5.74594 0.734998 5.87695 1.219 6.02395 1.698C6.21697 2.39822 6.59139 3.0351 7.10936 3.5443C7.62734 4.05349 8.27052 4.41697 8.97394 4.598C9.43794 4.735 9.90394 4.863 10.3739 4.998C10.5499 5.048 10.6349 5.143 10.6359 5.282C10.6369 5.421 10.5509 5.519 10.3779 5.569C9.83794 5.725 9.28994 5.859 8.75894 6.039C8.08981 6.24614 7.4849 6.62126 7.00192 7.12858C6.51893 7.6359 6.17397 8.2585 5.99995 8.937C5.86295 9.406 5.73294 9.876 5.59995 10.346C5.55095 10.516 5.45095 10.605 5.31295 10.604" fill="currentColor"/>
</svg>
